<?xml version="1.0" standalone="no"?>
<!DOCTYPE svg PUBLIC "-//W3C//DTD SVG 20010904//EN"
 "http://www.w3.org/TR/2001/REC-SVG-20010904/DTD/svg10.dtd">
<svg version="1.0" xmlns="http://www.w3.org/2000/svg"
 width="1024.000000pt" height="1024.000000pt" viewBox="0 0 1024.000000 1024.000000"
 preserveAspectRatio="xMidYMid meet">
<metadata>
Created by potrace 1.14, written by Peter Selinger 2001-2017
</metadata>
<g transform="translate(0.000000,1024.000000) scale(0.100000,-0.100000)"
fill="#000000" stroke="none">
<path d="M855 10025 c-291 -64 -518 -268 -617 -555 l-33 -95 -3 -862 -3 -863
4921 0 4921 0 -3 863 -3 862 -33 95 c-89 258 -274 443 -532 532 l-95 33 -4230
2 c-3478 1 -4241 -1 -4290 -12z m543 -1204 c67 -34 102 -93 102 -171 0 -93
-57 -165 -148 -190 -52 -13 -92 -6 -149 26 -62 36 -88 85 -88 164 0 79 26 127
88 165 53 32 140 34 195 6z m969 8 c64 -24 123 -109 123 -179 0 -110 -116
-212 -224 -196 -113 17 -187 126 -164 242 10 46 57 106 103 129 35 17 121 20
162 4z m1001 -8 c67 -34 102 -93 102 -171 0 -207 -280 -271 -370 -85 -45 94
-8 209 82 254 55 27 135 28 186 2z"/>
<path d="M202 4078 l3 -3183 23 -75 c82 -262 267 -465 516 -564 150 -60 -160
-56 4411 -54 l4190 3 73 23 c294 91 503 300 594 594 l23 73 3 3183 2 3182
-4920 0 -4920 0 2 -3182z m6159 1627 c40 -21 87 -81 95 -120 3 -20 4 -58 2
-84 -4 -42 -113 -220 -1057 -1722 -579 -921 -1067 -1689 -1086 -1708 -63 -65
-182 -71 -255 -13 -76 61 -96 170 -47 255 115 196 2096 3329 2121 3355 59 60
153 75 227 37z m-2613 -630 c100 -42 150 -160 108 -258 -18 -43 -47 -69 -511
-457 -220 -183 -442 -369 -492 -413 l-93 -78 533 -445 c403 -337 537 -454 555
-486 79 -146 -62 -323 -225 -279 -43 12 -48 16 -904 733 -304 254 -431 366
-442 391 -22 45 -22 129 0 174 19 40 -15 11 717 623 312 261 584 483 604 492
46 22 102 23 150 3z m3096 1 c41 -17 1286 -1053 1315 -1094 43 -61 44 -157 3
-220 -15 -23 -1235 -1047 -1293 -1085 -36 -24 -109 -32 -153 -17 -113 37 -168
168 -116 274 16 33 129 132 554 486 295 245 535 447 535 450 0 3 -241 205
-535 450 -577 480 -574 478 -574 574 0 136 142 233 264 182z"/>
</g>
</svg>
