<?xml version="1.0" standalone="no"?>
<!DOCTYPE svg PUBLIC "-//W3C//DTD SVG 20010904//EN"
 "http://www.w3.org/TR/2001/REC-SVG-20010904/DTD/svg10.dtd">
<svg version="1.0" xmlns="http://www.w3.org/2000/svg"
 width="1080.000000pt" height="1080.000000pt" viewBox="0 0 1080.000000 1080.000000"
 preserveAspectRatio="xMidYMid meet">
<metadata>
Created by potrace 1.14, written by Peter Selinger 2001-2017
</metadata>
<g transform="translate(0.000000,1080.000000) scale(0.100000,-0.100000)"
fill="#000000" stroke="none">
<path d="M0 5400 l0 -5400 5400 0 5400 0 0 5400 0 5400 -5400 0 -5400 0 0
-5400z m8352 1591 c276 -48 460 -140 622 -312 160 -170 239 -419 222 -696 -11
-179 -67 -349 -157 -480 -45 -65 -158 -173 -236 -225 -169 -113 -422 -212
-736 -288 -138 -33 -256 -59 -662 -143 l-60 -12 -3 -56 -3 -56 53 -6 c29 -4
448 -7 931 -7 l877 0 0 -280 0 -280 -1250 0 -1250 0 0 560 0 560 23 4 c12 3
63 10 112 16 50 6 158 22 240 36 770 128 1226 326 1366 594 32 62 34 70 34
170 0 95 -3 110 -27 155 -75 141 -235 213 -448 202 -396 -21 -595 -229 -619
-647 l-6 -115 -359 -3 -359 -2 6 117 c33 642 371 1055 962 1178 123 26 203 32
417 34 153 1 221 -3 310 -18z m-4654 -298 l-3 -278 -687 -3 -688 -2 0 -400 0
-400 33 0 c18 0 282 16 587 35 305 19 578 35 607 35 l53 0 0 -285 c0 -157 -3
-285 -8 -285 -21 0 -1138 -70 -1199 -76 l-73 -6 0 -439 0 -439 -355 0 -355 0
0 1410 0 1410 1045 0 1045 0 -2 -277z m2440 -1130 l-3 -1408 -357 -3 -358 -2
0 1131 0 1130 -21 -3 c-19 -3 -25 -17 -44 -103 -63 -280 -166 -467 -364 -666
-128 -127 -225 -196 -397 -283 -126 -62 -196 -86 -201 -69 -3 8 -12 9 -34 1
-17 -6 -32 -8 -35 -5 -3 3 -51 122 -106 264 -55 142 -104 268 -109 280 -8 21
-1 26 105 77 203 96 329 192 422 322 110 154 157 325 180 657 l6 87 659 0 659
0 -2 -1407z"/>
</g>
</svg>
