<?xml version="1.0" standalone="no"?>
<!DOCTYPE svg PUBLIC "-//W3C//DTD SVG 20010904//EN"
 "http://www.w3.org/TR/2001/REC-SVG-20010904/DTD/svg10.dtd">
<svg version="1.0" xmlns="http://www.w3.org/2000/svg"
 width="512.000000pt" height="512.000000pt" viewBox="0 0 512.000000 512.000000"
 preserveAspectRatio="xMidYMid meet">
<metadata>
Created by potrace 1.14, written by Peter Selinger 2001-2017
</metadata>
<g transform="translate(0.000000,512.000000) scale(0.100000,-0.100000)"
fill="#000000" stroke="none">
<path d="M436 5019 c-120 -20 -250 -120 -302 -234 -40 -86 -45 -154 -42 -570
l3 -390 2465 0 2465 0 3 390 c1 223 -2 418 -7 455 -28 178 -170 321 -348 350
-72 12 -4166 11 -4237 -1z m284 -634 c36 -37 33 -89 -8 -126 -37 -33 -60 -36
-103 -14 -60 31 -63 120 -6 156 39 24 82 19 117 -16z m469 20 c102 -52 26
-209 -80 -164 -69 28 -72 135 -5 165 40 17 51 17 85 -1z m491 0 c55 -29 67
-94 26 -142 -19 -22 -32 -28 -65 -28 -102 0 -130 137 -36 176 30 12 43 11 75
-6z"/>
<path d="M90 2078 c0 -1028 4 -1575 11 -1617 29 -184 176 -331 359 -360 89
-15 4109 -15 4198 -1 186 31 331 175 361 360 7 44 11 578 11 1618 l0 1552
-2470 0 -2470 0 0 -1552z m3089 767 c37 -19 56 -65 43 -102 -12 -37 -1038
-1671 -1068 -1703 -35 -36 -98 -35 -130 3 -30 35 -31 80 -3 127 12 19 253 402
535 851 324 514 522 820 536 827 32 15 54 14 87 -3z m-1278 -334 c21 -22 29
-39 29 -65 0 -45 -4 -49 -308 -301 -133 -110 -240 -205 -239 -211 1 -7 117
-107 257 -223 140 -117 263 -221 273 -233 61 -72 -41 -185 -121 -132 -36 23
-612 505 -634 530 -23 27 -30 65 -15 95 10 23 602 528 653 557 34 20 74 14
105 -17z m1853 -250 c178 -149 326 -277 330 -286 14 -36 5 -75 -21 -104 -36
-37 -569 -482 -619 -516 -20 -14 -45 -25 -56 -25 -64 0 -112 72 -86 127 7 15
132 127 277 249 145 121 264 224 264 229 0 5 -119 108 -264 230 -145 122 -270
233 -277 248 -18 37 0 92 36 112 58 32 74 22 416 -264z"/>
</g>
</svg>
